<svg width="181" height="56" viewBox="0 0 181 56" fill="none" xmlns="http://www.w3.org/2000/svg">
<path d="M44.3868 28.3106V42.6876H36.7274L36.6647 11.8617H44.3868V15.0008C44.7635 14.4358 47.0237 11.485 53.4274 11.8617V19.3328C53.4274 19.3328 44.7007 18.7049 44.3868 27.5572C44.3868 27.5572 44.3868 28.0594 44.3868 28.3106Z" fill="#E96125"/>
<path d="M146.47 28.1221L146.533 42.6247H138.874L138.811 11.7988H146.47V14.8123C146.847 14.2473 149.107 11.2965 155.511 11.6732V19.0815C155.511 19.0815 146.784 18.4537 146.47 27.3059C146.47 27.3687 146.47 27.871 146.47 28.1221Z" fill="#E96125"/>
<path d="M80.863 38.7949C77.7867 41.8712 74.0198 43.378 69.5623 43.378C65.1048 43.378 61.3378 41.8712 58.2615 38.7949C55.1852 35.7186 53.6785 32.0145 53.6785 27.4942C53.6785 22.9739 55.1852 19.2697 58.2615 16.1934C61.3378 13.1171 65.042 11.6104 69.5623 11.6104C74.0198 11.6104 77.7867 13.1171 80.863 16.1934C83.9393 19.2697 85.5089 22.9739 85.5089 27.4942C85.5089 32.0145 83.9393 35.7186 80.863 38.7949ZM63.7864 33.4584C65.2931 34.9652 67.3021 35.7814 69.6251 35.7814C71.948 35.7814 73.8942 34.9652 75.4638 33.4584C77.0333 31.9517 77.7867 29.8799 77.7867 27.4942C77.7867 25.1085 76.9705 23.0994 75.4638 21.5299C73.957 20.0231 71.948 19.207 69.6251 19.207C67.3021 19.207 65.4187 20.0231 63.7864 21.5299C62.2796 23.0367 61.4634 25.1085 61.4634 27.4942C61.4634 29.8799 62.2168 31.8889 63.7864 33.4584Z" fill="#E96125"/>
<path d="M112.693 30.6335C113.698 34.4004 116.523 36.221 121.043 36.221C123.931 36.221 126.191 35.2793 127.698 33.2703L133.914 36.8489C131.026 41.118 126.631 43.2526 120.918 43.2526C116.021 43.2526 112.066 41.7458 109.052 38.7323C106.101 35.7816 104.532 32.0147 104.532 27.4316C104.532 22.9113 105.976 19.1444 108.989 16.1936C111.877 13.2429 115.707 11.6733 120.353 11.6733C124.747 11.6733 128.326 13.1801 131.151 16.2564C133.976 19.2699 135.42 22.9741 135.42 27.4944C135.42 28.4361 135.295 29.5662 135.106 30.6335H112.693ZM112.568 24.6064H127.761C127.322 22.5974 126.443 21.0906 124.999 20.0233C123.617 19.0816 122.111 18.5166 120.353 18.5166C118.281 18.5166 116.586 19.0816 115.267 20.0861C113.886 21.279 112.944 22.7229 112.568 24.6064Z" fill="#E96125"/>
<path d="M165.681 20.9652C165.681 21.7814 166.246 22.4092 167.251 22.9115C168.255 23.4137 169.574 23.7904 171.081 24.2299C172.587 24.6066 174.094 25.1088 175.601 25.6739C177.108 26.2389 178.363 27.1807 179.431 28.5619C180.435 29.8803 181 31.5754 181 33.6472C181 36.6607 179.87 39.0464 177.547 40.6788C175.224 42.3111 172.399 43.19 169.009 43.19C162.919 43.19 158.713 40.8043 156.515 36.0957L163.17 32.3288C164.049 34.9656 165.995 36.2212 169.009 36.2212C171.708 36.2212 173.152 35.3423 173.152 33.6472C173.152 32.831 172.587 32.2032 171.583 31.7009C170.578 31.1987 169.26 30.7592 167.753 30.3825C166.246 29.943 164.74 29.5036 163.233 28.8758C161.726 28.2479 160.47 27.369 159.403 26.0506C158.399 24.7949 157.834 23.1626 157.834 21.2164C157.834 18.3284 158.901 15.9427 161.098 14.3104C163.296 12.6153 165.932 11.7363 169.134 11.7363C171.583 11.7363 173.717 12.3014 175.726 13.3687C177.735 14.436 179.305 16.0055 180.435 18.0145L173.906 21.5931C172.964 19.584 171.332 18.5795 169.134 18.5795C168.193 18.5795 167.314 18.8307 166.623 19.2701C166.058 19.6468 165.681 20.2119 165.681 20.9652Z" fill="#E96125"/>
<path d="M32.2071 11.8616H24.6733V14.6868C22.0364 12.8033 19.0857 11.7988 15.6327 11.7988H15.5699C15.4443 11.7988 15.3188 11.7988 15.1304 11.7988C11.9914 11.7988 9.16614 12.615 6.78043 14.3729C2.69961 17.0725 0 21.7183 0 26.992C0 28.7499 0.313924 30.5078 0.878961 32.0774C1.56956 34.3375 2.8252 36.4093 4.64587 38.23C7.59662 41.1807 11.238 42.6875 15.6327 42.6875C19.0857 42.6875 22.0992 41.7457 24.6733 39.7995V40.9924C24.6733 43.3153 23.9827 45.136 22.6015 46.3916C21.2203 47.6472 19.3368 48.2751 16.8883 48.2751C13.1842 48.2751 10.5473 46.8939 9.10336 44.1315L2.57408 47.8984C3.8925 50.2841 5.77595 52.042 8.22444 53.2976C10.6729 54.5532 13.4981 55.1183 16.7 55.1183C20.9692 55.1183 24.6105 53.9254 27.6868 51.4769C30.7003 49.0284 32.2071 45.5127 32.2071 40.9296V11.8616ZM9.91952 32.9563C8.47554 31.4495 7.78496 29.5661 7.78496 27.2431C7.78496 24.9202 8.53833 22.974 10.0451 21.4672C11.5519 19.9605 13.4353 19.2071 15.6955 19.2071C17.9556 19.2071 19.8391 19.9605 21.3458 21.4672C22.8526 22.974 23.606 24.9202 23.606 27.2431C23.606 29.5661 22.8526 31.5123 21.3458 33.0191C19.8391 34.5258 17.9556 35.2792 15.6955 35.2792C15.3188 35.2792 15.0677 35.2792 14.691 35.2164C12.7447 34.9653 11.1752 34.1491 9.91952 32.9563Z" fill="#E96125"/>
<path d="M104.092 11.7362H97.8769C98.1908 8.59707 100.263 7.09031 104.155 7.40422V0.0587358C99.5092 -0.255173 95.9934 0.686558 93.6705 2.9467C91.4731 4.95572 90.3431 7.96925 90.1547 11.7989H85.8855V17.0098L85.8228 19.5211H90.0919L90.2175 42.6876H97.8769L97.7513 19.4583H104.092V11.7362Z" fill="#E96125"/>
</svg>
